# xmcd
# 
# Track frame offsets:
#     150
#     14885
#     35891
#     55173
#     68052
#     83173
#     96810
#     110053
#     122937
#     139289
#     156811
# 
# Disc length: 2256
# 
# Revision: 2
# Processed by: cddbd v1.5.2PL0 Copyright (c) Steve Scherf et al.
# Submitted via: fre:ac v1.0.17
# 
DISCID=a108ce0b
DTITLE=Scott Holstein - Cold coal town
DYEAR=0
DGENRE=Bluegrass
TTITLE0=The Spell
TTITLE1=Walls of stone
TTITLE2=Cold coal town
TTITLE3=Blackwater
TTITLE4=Leavin' Charleston
TTITLE5=Boone County blues
TTITLE6=Montani semper liberi
TTITLE7=Roll coal roll
TTITLE8=Clinch Mountain hills
TTITLE9=The Holstein waltz
TTITLE10=Ain't no higher ground
EXTD=
EXTT0=
EXTT1=
EXTT2=
EXTT3=
EXTT4=
EXTT5=
EXTT6=
EXTT7=
EXTT8=
EXTT9=
EXTT10=
PLAYORDER=
